<svg width="16" height="16" viewBox="0 0 16 16" fill="none" xmlns="http://www.w3.org/2000/svg">
<mask id="mask0_605_6716" style="mask-type:alpha" maskUnits="userSpaceOnUse" x="0" y="0" width="16" height="16">
<rect width="16" height="16" fill="#D9D9D9"/>
</mask>
<g mask="url(#mask0_605_6716)">
<path d="M7.99727 13.3333C8.56393 13.3333 9.10838 13.2471 9.6306 13.0749C10.1528 12.9027 10.6417 12.6555 11.0973 12.3333C10.6417 12.011 10.1528 11.7638 9.6306 11.5916C9.10838 11.4194 8.56393 11.3333 7.99727 11.3333C7.4306 11.3333 6.88615 11.4194 6.36393 11.5916C5.84171 11.7638 5.35282 12.011 4.89727 12.3333C5.35282 12.6555 5.84171 12.9027 6.36393 13.0749C6.88615 13.2471 7.4306 13.3333 7.99727 13.3333ZM9.76393 7.86659L8.81393 6.91659C8.86949 6.8277 8.91393 6.73325 8.94727 6.63325C8.9806 6.53325 8.99727 6.43325 8.99727 6.33325C8.99727 6.05547 8.90004 5.81936 8.7056 5.62492C8.51115 5.43047 8.27504 5.33325 7.99727 5.33325C7.89727 5.33325 7.79727 5.34992 7.69727 5.38325C7.59727 5.41659 7.50282 5.46103 7.41393 5.51659L6.46393 4.56659C6.67504 4.3777 6.91116 4.23603 7.17227 4.14159C7.43338 4.04714 7.70838 3.99992 7.99727 3.99992C8.64171 3.99992 9.19171 4.2277 9.64727 4.68325C10.1028 5.13881 10.3306 5.68881 10.3306 6.33325C10.3306 6.62214 10.2834 6.89714 10.1889 7.15825C10.0945 7.41936 9.95282 7.65548 9.76393 7.86659ZM13.5639 11.6666L12.5973 10.6999C12.8417 10.2888 13.025 9.85548 13.1473 9.39992C13.2695 8.94436 13.3306 8.4777 13.3306 7.99992C13.3306 6.51103 12.8139 5.24992 11.7806 4.21659C10.7473 3.18325 9.48615 2.66659 7.99727 2.66659C7.51949 2.66659 7.05282 2.7277 6.59727 2.84992C6.14171 2.97214 5.70838 3.15547 5.29727 3.39992L4.3306 2.43325C4.87504 2.0777 5.45838 1.80547 6.0806 1.61659C6.70282 1.4277 7.34171 1.33325 7.99727 1.33325C8.91949 1.33325 9.78615 1.50825 10.5973 1.85825C11.4084 2.20825 12.1139 2.68325 12.7139 3.28325C13.3139 3.88325 13.7889 4.58881 14.1389 5.39992C14.4889 6.21103 14.6639 7.0777 14.6639 7.99992C14.6639 8.65548 14.5695 9.29436 14.3806 9.91659C14.1917 10.5388 13.9195 11.1221 13.5639 11.6666ZM7.99727 14.6666C7.07504 14.6666 6.20838 14.4916 5.39727 14.1416C4.58615 13.7916 3.8806 13.3166 3.2806 12.7166C2.6806 12.1166 2.2056 11.411 1.8556 10.5999C1.5056 9.78881 1.3306 8.92214 1.3306 7.99992C1.3306 7.34436 1.42227 6.70547 1.6056 6.08325C1.78893 5.46103 2.05838 4.87214 2.41393 4.31659L0.447266 2.33325L1.39727 1.38325L14.5973 14.5833L13.6473 15.5333L3.39727 5.29992C3.15282 5.71103 2.96949 6.14436 2.84727 6.59992C2.72504 7.05547 2.66393 7.52214 2.66393 7.99992C2.66393 8.63325 2.76949 9.23881 2.9806 9.81659C3.19171 10.3944 3.49727 10.9221 3.89727 11.3999C4.49727 10.9444 5.14449 10.5971 5.83893 10.3583C6.53338 10.1194 7.25282 9.99992 7.99727 9.99992C8.41949 9.99992 8.84171 10.0444 9.26393 10.1333C9.68616 10.2221 10.0973 10.3444 10.4973 10.4999L12.7139 12.7166C12.0806 13.3499 11.3584 13.8333 10.5473 14.1666C9.73616 14.4999 8.88616 14.6666 7.99727 14.6666Z" fill="white"/>
</g>
</svg>
