<svg width="58" height="58" viewBox="0 0 58 58" fill="none" xmlns="http://www.w3.org/2000/svg">
<rect width="58" height="58" rx="8" fill="#fff"/>
<path d="M36.6706 31.6667C37.0646 31.6667 37.4547 31.7443 37.8187 31.895C38.1826 32.0458 38.5134 32.2668 38.7919 32.5454C39.0705 32.8239 39.2915 33.1546 39.4423 33.5186C39.593 33.8826 39.6706 34.2727 39.6706 34.6667V35.8733C39.6708 36.5941 39.5152 37.3063 39.2144 37.9613C38.9136 38.6163 38.4748 39.1985 37.9279 39.668C35.8399 41.46 32.8533 42.3333 28.9999 42.3333C25.1466 42.3333 22.1626 41.4587 20.0786 39.6667C19.5326 39.1974 19.0943 38.6158 18.7937 37.9616C18.4932 37.3074 18.3375 36.596 18.3373 35.876V34.6653C18.3376 33.8699 18.6539 33.1072 19.2164 32.5449C19.779 31.9826 20.5419 31.6667 21.3373 31.6667H36.6706ZM36.6706 33.6667H21.3373C21.0721 33.6667 20.8177 33.772 20.6302 33.9596C20.4426 34.1471 20.3373 34.4015 20.3373 34.6667V35.8773C20.3373 36.7507 20.7186 37.5813 21.3826 38.152C23.0599 39.5933 25.5866 40.336 28.9999 40.336C32.4133 40.336 34.9439 39.5933 36.6253 38.1493C36.953 37.8678 37.2161 37.5188 37.3965 37.1262C37.577 36.7337 37.6705 36.3067 37.6706 35.8747V34.6667C37.6706 34.4015 37.5653 34.1471 37.3777 33.9596C37.1902 33.772 36.9358 33.6667 36.6706 33.6667ZM28.8639 15.6773L28.9999 15.6667C29.2416 15.6667 29.4751 15.7542 29.6572 15.913C29.8393 16.0719 29.9577 16.2913 29.9906 16.5307L29.9999 16.6667V17.6667H34.6666C35.4623 17.6667 36.2253 17.9827 36.7879 18.5454C37.3505 19.108 37.6666 19.871 37.6666 20.6667V26.6733C37.6666 27.469 37.3505 28.232 36.7879 28.7947C36.2253 29.3573 35.4623 29.6733 34.6666 29.6733H23.3333C22.5376 29.6733 21.7746 29.3573 21.212 28.7947C20.6494 28.232 20.3333 27.469 20.3333 26.6733V20.6667C20.3333 19.871 20.6494 19.108 21.212 18.5454C21.7746 17.9827 22.5376 17.6667 23.3333 17.6667H27.9999V16.668C28 16.4264 28.0875 16.1929 28.2463 16.0108C28.4051 15.8286 28.6245 15.7102 28.8639 15.6773ZM34.6666 19.6667H23.3333C23.0681 19.6667 22.8137 19.772 22.6262 19.9596C22.4386 20.1471 22.3333 20.4015 22.3333 20.6667V26.6733C22.3333 27.2253 22.7813 27.6733 23.3333 27.6733H34.6666C34.9318 27.6733 35.1862 27.568 35.3737 27.3804C35.5613 27.1929 35.6666 26.9386 35.6666 26.6733V20.6667C35.6666 20.4015 35.5613 20.1471 35.3737 19.9596C35.1862 19.772 34.9318 19.6667 34.6666 19.6667ZM25.9999 21.6667C26.442 21.6667 26.8659 21.8423 27.1785 22.1548C27.491 22.4674 27.6666 22.8913 27.6666 23.3333C27.6666 23.7754 27.491 24.1993 27.1785 24.5118C26.8659 24.8244 26.442 25 25.9999 25C25.5579 25 25.134 24.8244 24.8214 24.5118C24.5089 24.1993 24.3333 23.7754 24.3333 23.3333C24.3333 22.8913 24.5089 22.4674 24.8214 22.1548C25.134 21.8423 25.5579 21.6667 25.9999 21.6667ZM31.9893 21.6667C32.212 21.6604 32.4338 21.6988 32.6414 21.7797C32.8491 21.8606 33.0384 21.9823 33.1981 22.1376C33.3579 22.2929 33.4849 22.4787 33.5717 22.684C33.6584 22.8893 33.7031 23.1098 33.7031 23.3327C33.7031 23.5555 33.6584 23.7761 33.5717 23.9813C33.4849 24.1866 33.3579 24.3724 33.1981 24.5277C33.0384 24.6831 32.8491 24.8048 32.6414 24.8857C32.4338 24.9665 32.212 25.005 31.9893 24.9987C31.5556 24.9864 31.1438 24.8055 30.8414 24.4944C30.5389 24.1833 30.3697 23.7665 30.3697 23.3327C30.3697 22.8988 30.5389 22.482 30.8414 22.1709C31.1438 21.8598 31.5556 21.6789 31.9893 21.6667Z" fill="#087443"/>
</svg>
