<svg width="18" height="18" viewBox="0 0 18 18" fill="none" xmlns="http://www.w3.org/2000/svg">
<path d="M11.6992 7.80809L14.6431 2.36759C15.0647 1.58845 16.0853 2.18126 15.6798 2.92981L12.7076 8.42188" stroke="#515151" stroke-miterlimit="10" stroke-linecap="round" stroke-linejoin="round"/>
<path d="M9.9089 8.55106C9.02781 9.88117 6.4289 11.4532 4.93517 11.8468C4.7917 11.8847 6.26284 15.6935 11.3994 16C11.3994 16 12.8762 11.8106 12.9657 9.50369C13.0471 7.42423 10.6699 7.40164 9.9089 8.55106Z" stroke="#515151" stroke-miterlimit="10" stroke-linecap="round" stroke-linejoin="round"/>
<path d="M11.49 11.7085L12.4823 12.3691M8.66211 9.8284L9.65605 10.4898M12.7781 11.0173L9.57464 8.98063" stroke="#515151" stroke-miterlimit="10" stroke-linecap="round" stroke-linejoin="round"/>
<path d="M8.77435 11.9573C7.83925 12.7341 6.97105 13.2011 6.03516 13.6641" stroke="#515151" stroke-miterlimit="10" stroke-linecap="round" stroke-linejoin="round"/>
<path d="M10.1164 12.86C9.52074 13.9916 8.9637 14.7256 8.43164 15.3281" stroke="#515151" stroke-miterlimit="10" stroke-linecap="round" stroke-linejoin="round"/>
<path d="M2.87383 12.3906C3.35424 12.3906 3.74684 11.9978 3.74684 11.5162C3.74684 11.0347 3.35424 10.6419 2.87383 10.6419C2.39257 10.6419 2 11.0347 2 11.5162C2 11.9978 2.39257 12.3906 2.87383 12.3906Z" stroke="#515151" stroke-miterlimit="10" stroke-linecap="round" stroke-linejoin="round"/>
<path d="M3.62934 14.7441C3.91548 14.7441 4.14924 14.5102 4.14924 14.2231C4.14924 13.9368 3.91548 13.7028 3.62934 13.7028C3.34316 13.7028 3.10938 13.9368 3.10938 14.2231C3.10938 14.5102 3.34316 14.7441 3.62934 14.7441Z" stroke="#515151" stroke-miterlimit="10" stroke-linecap="round" stroke-linejoin="round"/>
<path d="M4.79274 9.67969C5.06036 9.67969 5.27884 9.46104 5.27884 9.19324C5.27884 8.92468 5.06036 8.70609 4.79274 8.70609C4.52512 8.70609 4.30664 8.92468 4.30664 9.19324C4.30664 9.46104 4.52512 9.67969 4.79274 9.67969Z" stroke="#515151" stroke-miterlimit="10" stroke-linecap="round" stroke-linejoin="round"/>
<path d="M10.5684 11.0964L10.5732 11.0996" stroke="#515151" stroke-miterlimit="10" stroke-linecap="round" stroke-linejoin="round"/>
</svg>
