<svg width="16" height="16" viewBox="0 0 16 16" fill="none" xmlns="http://www.w3.org/2000/svg">
<path d="M3.5002 13.6667H12.4989C12.6255 13.667 12.7473 13.7152 12.8398 13.8017C12.9322 13.8883 12.9884 14.0067 12.9969 14.133C13.0055 14.2593 12.9658 14.3842 12.8858 14.4824C12.8059 14.5806 12.6916 14.6448 12.5662 14.6621L12.4989 14.6667H3.5002C3.37262 14.668 3.24936 14.6205 3.15568 14.5339C3.062 14.4473 3.00497 14.3281 2.99628 14.2008C2.98759 14.0735 3.02789 13.9477 3.10893 13.8492C3.18998 13.7506 3.30563 13.6868 3.4322 13.6707L3.5002 13.6667ZM7.9222 1.33474L8.0002 1.33008C8.16349 1.3301 8.32109 1.39005 8.44312 1.49855C8.56514 1.60706 8.6431 1.75658 8.6622 1.91874L8.66687 1.99674V10.3901L10.8629 8.19474C10.9777 8.07996 11.1304 8.01101 11.2924 8.00082C11.4544 7.99063 11.6146 8.03991 11.7429 8.13941L11.8055 8.19541C11.9203 8.31021 11.9893 8.46294 11.9995 8.62496C12.0097 8.78698 11.9604 8.94714 11.8609 9.07541L11.8055 9.13808L8.4742 12.4687C8.35949 12.5836 8.2068 12.6527 8.04478 12.663C7.88276 12.6733 7.72255 12.6242 7.5942 12.5247L7.53154 12.4694L4.19554 9.13808C4.0747 9.01838 4.00418 8.85703 3.99841 8.68705C3.99265 8.51706 4.05207 8.3513 4.16451 8.22369C4.27696 8.09608 4.43393 8.01628 4.60329 8.00061C4.77264 7.98494 4.94159 8.0346 5.07554 8.13941L5.1382 8.19474L7.33354 10.3867V1.99674C7.33356 1.83346 7.39351 1.67585 7.50201 1.55383C7.61052 1.43181 7.76004 1.35385 7.9222 1.33474Z" fill="#2B2B2B"/>
</svg>
