<svg width="24" height="24" viewBox="0 0 24 24" fill="none" xmlns="http://www.w3.org/2000/svg">
<path d="M9.27734 7.77844C9.34894 7.70922 9.40604 7.62643 9.4453 7.53491C9.48456 7.44339 9.5052 7.34497 9.50602 7.24538C9.50684 7.1458 9.48782 7.04705 9.45006 6.95489C9.41231 6.86274 9.35658 6.77903 9.28613 6.70864C9.21568 6.63825 9.13191 6.5826 9.03972 6.54494C8.94753 6.50727 8.84876 6.48834 8.74918 6.48925C8.6496 6.49016 8.55119 6.5109 8.45971 6.55025C8.36822 6.5896 8.28549 6.64677 8.21634 6.71844L3.21934 11.7214C3.07889 11.8621 3 12.0527 3 12.2514C3 12.4502 3.07889 12.6408 3.21934 12.7814L8.21634 17.7794C8.35773 17.9161 8.54714 17.9918 8.74379 17.9902C8.94044 17.9886 9.12859 17.9098 9.26771 17.7708C9.40683 17.6318 9.4858 17.4437 9.4876 17.2471C9.4894 17.0504 9.41389 16.861 9.27734 16.7194L5.55734 12.9994H13.3993C14.9943 12.9994 16.2093 12.7574 17.2883 12.2354L17.5343 12.1094C18.6315 11.528 19.5289 10.6306 20.1103 9.53344C20.7203 8.39344 21.0003 7.11544 21.0003 5.39844C21.0003 5.19953 20.9213 5.00876 20.7807 4.86811C20.64 4.72746 20.4493 4.64844 20.2503 4.64844C20.0514 4.64844 19.8607 4.72746 19.72 4.86811C19.5794 5.00876 19.5003 5.19953 19.5003 5.39844C19.5003 6.88244 19.2723 7.91844 18.7873 8.82644C18.3458 9.66187 17.6628 10.3449 16.8273 10.7864C15.9893 11.2344 15.0413 11.4624 13.7333 11.4954L13.3993 11.4994H5.56234L9.27734 7.77844Z" fill="#099250"/>
</svg>
